<mxfile host="app.diagrams.net" agent="Mozilla/5.0 (Windows NT 10.0; Win64; x64) AppleWebKit/537.36 (KHTML, like Gecko) Chrome/131.0.0.0 Safari/537.36 Edg/131.0.0.0" version="24.8.8">
  <diagram name="Page-1" id="Dgcp7kBMrUGKEQ_Mz09O">
    <mxGraphModel dx="3305" dy="2023" grid="1" gridSize="10" guides="1" tooltips="1" connect="1" arrows="1" fold="1" page="1" pageScale="1" pageWidth="850" pageHeight="1100" math="0" shadow="0">
      <root>
        <mxCell id="0" />
        <mxCell id="1" parent="0" />
        <mxCell id="ZFk2LEt_zFQZBbhwsWkd-74" value="&lt;b&gt;&lt;font style=&quot;font-size: 16px;&quot;&gt;&amp;nbsp; Reciever Connect&lt;/font&gt;&lt;/b&gt;" style="rounded=0;whiteSpace=wrap;html=1;align=left;verticalAlign=top;" vertex="1" parent="1">
          <mxGeometry x="210" y="930" width="1070" height="320" as="geometry" />
        </mxCell>
        <mxCell id="ZFk2LEt_zFQZBbhwsWkd-72" value="&lt;b&gt;&lt;font style=&quot;font-size: 16px;&quot;&gt;&amp;nbsp; Reciever Setup&lt;/font&gt;&lt;/b&gt;" style="rounded=0;whiteSpace=wrap;html=1;align=left;verticalAlign=top;" vertex="1" parent="1">
          <mxGeometry x="210" y="6" width="970" height="194" as="geometry" />
        </mxCell>
        <mxCell id="ZFk2LEt_zFQZBbhwsWkd-71" value="&lt;b&gt;&lt;font style=&quot;font-size: 16px;&quot;&gt;&amp;nbsp; Sender Setup&lt;/font&gt;&lt;/b&gt;" style="rounded=0;whiteSpace=wrap;html=1;align=left;verticalAlign=top;" vertex="1" parent="1">
          <mxGeometry x="-220" y="300" width="960" height="190" as="geometry" />
        </mxCell>
        <mxCell id="ZFk2LEt_zFQZBbhwsWkd-70" value="&lt;b&gt;&lt;font style=&quot;font-size: 16px;&quot;&gt;&amp;nbsp; Sender Connect&lt;/font&gt;&lt;/b&gt;" style="rounded=0;whiteSpace=wrap;html=1;align=left;verticalAlign=top;" vertex="1" parent="1">
          <mxGeometry x="-220" y="570" width="960" height="320" as="geometry" />
        </mxCell>
        <mxCell id="ZFk2LEt_zFQZBbhwsWkd-2" value="Node2" style="swimlane;fontStyle=1;align=center;verticalAlign=top;childLayout=stackLayout;horizontal=1;startSize=26;horizontalStack=0;resizeParent=1;resizeParentMax=0;resizeLast=0;collapsible=1;marginBottom=0;whiteSpace=wrap;html=1;fillColor=#dae8fc;strokeColor=#6c8ebf;" vertex="1" parent="1">
          <mxGeometry x="1000" y="50" width="160" height="60" as="geometry" />
        </mxCell>
        <mxCell id="ZFk2LEt_zFQZBbhwsWkd-3" value="shmRecvSetup" style="text;strokeColor=none;fillColor=none;align=left;verticalAlign=top;spacingLeft=4;spacingRight=4;overflow=hidden;rotatable=0;points=[[0,0.5],[1,0.5]];portConstraint=eastwest;whiteSpace=wrap;html=1;" vertex="1" parent="ZFk2LEt_zFQZBbhwsWkd-2">
          <mxGeometry y="26" width="160" height="26" as="geometry" />
        </mxCell>
        <mxCell id="ZFk2LEt_zFQZBbhwsWkd-4" value="" style="line;strokeWidth=1;fillColor=none;align=left;verticalAlign=middle;spacingTop=-1;spacingLeft=3;spacingRight=3;rotatable=0;labelPosition=right;points=[];portConstraint=eastwest;strokeColor=inherit;" vertex="1" parent="ZFk2LEt_zFQZBbhwsWkd-2">
          <mxGeometry y="52" width="160" height="8" as="geometry" />
        </mxCell>
        <mxCell id="ZFk2LEt_zFQZBbhwsWkd-6" value="Node1" style="swimlane;fontStyle=1;align=center;verticalAlign=top;childLayout=stackLayout;horizontal=1;startSize=26;horizontalStack=0;resizeParent=1;resizeParentMax=0;resizeLast=0;collapsible=1;marginBottom=0;whiteSpace=wrap;html=1;fillColor=#d5e8d4;strokeColor=#82b366;" vertex="1" parent="1">
          <mxGeometry x="-210" y="620" width="230" height="86" as="geometry" />
        </mxCell>
        <mxCell id="ZFk2LEt_zFQZBbhwsWkd-7" value="shmSendConnect 步骤1 设置对端buf" style="text;strokeColor=default;fillColor=none;align=left;verticalAlign=top;spacingLeft=4;spacingRight=4;overflow=hidden;rotatable=0;points=[[0,0.5],[1,0.5]];portConstraint=eastwest;whiteSpace=wrap;html=1;" vertex="1" parent="ZFk2LEt_zFQZBbhwsWkd-6">
          <mxGeometry y="26" width="230" height="26" as="geometry" />
        </mxCell>
        <mxCell id="ZFk2LEt_zFQZBbhwsWkd-32" value="shmSendConnect 步骤2 设置head/tail" style="text;strokeColor=default;fillColor=none;align=left;verticalAlign=top;spacingLeft=4;spacingRight=4;overflow=hidden;rotatable=0;points=[[0,0.5],[1,0.5]];portConstraint=eastwest;whiteSpace=wrap;html=1;" vertex="1" parent="ZFk2LEt_zFQZBbhwsWkd-6">
          <mxGeometry y="52" width="230" height="26" as="geometry" />
        </mxCell>
        <mxCell id="ZFk2LEt_zFQZBbhwsWkd-8" value="" style="line;strokeWidth=1;fillColor=none;align=left;verticalAlign=middle;spacingTop=-1;spacingLeft=3;spacingRight=3;rotatable=0;labelPosition=right;points=[];portConstraint=eastwest;strokeColor=inherit;" vertex="1" parent="ZFk2LEt_zFQZBbhwsWkd-6">
          <mxGeometry y="78" width="230" height="8" as="geometry" />
        </mxCell>
        <mxCell id="ZFk2LEt_zFQZBbhwsWkd-14" value="&lt;span style=&quot;font-weight: 400; text-align: left;&quot;&gt;ncclShmOpen 创建shm&lt;/span&gt;&lt;span style=&quot;text-align: left;&quot;&gt;&lt;font color=&quot;#ff0000&quot;&gt;接收描述符&lt;/font&gt;&lt;/span&gt;&lt;span style=&quot;font-weight: 400; text-align: left;&quot;&gt;以及&lt;/span&gt;&lt;span style=&quot;text-align: left;&quot;&gt;&lt;font color=&quot;#ff0000&quot;&gt;DataBuf&lt;/font&gt;&lt;br&gt;&lt;/span&gt;" style="swimlane;fontStyle=1;align=center;verticalAlign=top;childLayout=stackLayout;horizontal=1;startSize=30;horizontalStack=0;resizeParent=1;resizeParentMax=0;resizeLast=0;collapsible=1;marginBottom=0;whiteSpace=wrap;html=1;fillColor=#dae8fc;strokeColor=#6c8ebf;" vertex="1" parent="1">
          <mxGeometry x="230" y="70" width="480" height="110" as="geometry" />
        </mxCell>
        <mxCell id="ZFk2LEt_zFQZBbhwsWkd-15" value="hostMem&amp;nbsp; //通过 mkstemp, open, mmap 创建,&amp;nbsp;" style="text;strokeColor=none;fillColor=none;align=left;verticalAlign=top;spacingLeft=4;spacingRight=4;overflow=hidden;rotatable=0;points=[[0,0.5],[1,0.5]];portConstraint=eastwest;whiteSpace=wrap;html=1;" vertex="1" parent="ZFk2LEt_zFQZBbhwsWkd-14">
          <mxGeometry y="30" width="480" height="30" as="geometry" />
        </mxCell>
        <mxCell id="ZFk2LEt_zFQZBbhwsWkd-16" value="" style="line;strokeWidth=1;fillColor=none;align=left;verticalAlign=middle;spacingTop=-1;spacingLeft=3;spacingRight=3;rotatable=0;labelPosition=right;points=[];portConstraint=eastwest;strokeColor=inherit;" vertex="1" parent="ZFk2LEt_zFQZBbhwsWkd-14">
          <mxGeometry y="60" width="480" height="8" as="geometry" />
        </mxCell>
        <mxCell id="ZFk2LEt_zFQZBbhwsWkd-17" value="devRemHostMem //cudaHostRegister cudaHostGetDevicePointer 获取device buf 地址" style="text;strokeColor=none;fillColor=none;align=left;verticalAlign=top;spacingLeft=4;spacingRight=4;overflow=hidden;rotatable=0;points=[[0,0.5],[1,0.5]];portConstraint=eastwest;whiteSpace=wrap;html=1;" vertex="1" parent="ZFk2LEt_zFQZBbhwsWkd-14">
          <mxGeometry y="68" width="480" height="42" as="geometry" />
        </mxCell>
        <mxCell id="ZFk2LEt_zFQZBbhwsWkd-18" value="&lt;b&gt;&lt;font color=&quot;#ff0000&quot;&gt;设置shm大小, 创建shm, 包含shm描述符与 data buf&lt;/font&gt;&lt;/b&gt;" style="html=1;verticalAlign=bottom;endArrow=block;curved=0;rounded=0;exitX=0;exitY=0.5;exitDx=0;exitDy=0;entryX=1.002;entryY=0.189;entryDx=0;entryDy=0;entryPerimeter=0;" edge="1" parent="1" source="ZFk2LEt_zFQZBbhwsWkd-3" target="ZFk2LEt_zFQZBbhwsWkd-14">
          <mxGeometry width="80" relative="1" as="geometry">
            <mxPoint x="110" y="150" as="sourcePoint" />
            <mxPoint x="190" y="150" as="targetPoint" />
          </mxGeometry>
        </mxCell>
        <mxCell id="ZFk2LEt_zFQZBbhwsWkd-19" value="&lt;span style=&quot;font-weight: 400; text-align: left;&quot;&gt;ncclShmOpen( rem Mem 是包含了&lt;/span&gt;&lt;span style=&quot;text-align: left;&quot;&gt;&lt;font color=&quot;#ff3333&quot;&gt;DataBuf&lt;/font&gt;&lt;/span&gt;&lt;span style=&quot;font-weight: 400; text-align: left;&quot;&gt;的接收描述符)&lt;br&gt;&lt;/span&gt;" style="swimlane;fontStyle=1;align=center;verticalAlign=top;childLayout=stackLayout;horizontal=1;startSize=30;horizontalStack=0;resizeParent=1;resizeParentMax=0;resizeLast=0;collapsible=1;marginBottom=0;whiteSpace=wrap;html=1;fillColor=#d5e8d4;strokeColor=#82b366;" vertex="1" parent="1">
          <mxGeometry x="230" y="640" width="480" height="90" as="geometry" />
        </mxCell>
        <mxCell id="ZFk2LEt_zFQZBbhwsWkd-20" value="remHostMem&amp;nbsp; //通过 open, mmap 引用 (remHostMem 是Node2创建)" style="text;strokeColor=none;fillColor=none;align=left;verticalAlign=top;spacingLeft=4;spacingRight=4;overflow=hidden;rotatable=0;points=[[0,0.5],[1,0.5]];portConstraint=eastwest;whiteSpace=wrap;html=1;" vertex="1" parent="ZFk2LEt_zFQZBbhwsWkd-19">
          <mxGeometry y="30" width="480" height="20" as="geometry" />
        </mxCell>
        <mxCell id="ZFk2LEt_zFQZBbhwsWkd-21" value="" style="line;strokeWidth=1;fillColor=none;align=left;verticalAlign=middle;spacingTop=-1;spacingLeft=3;spacingRight=3;rotatable=0;labelPosition=right;points=[];portConstraint=eastwest;strokeColor=inherit;" vertex="1" parent="ZFk2LEt_zFQZBbhwsWkd-19">
          <mxGeometry y="50" width="480" height="8" as="geometry" />
        </mxCell>
        <mxCell id="ZFk2LEt_zFQZBbhwsWkd-22" value="devRemHostMem //cudaHostRegister cudaHostGetDevicePointer 获取device buf 地址" style="text;strokeColor=none;fillColor=none;align=left;verticalAlign=top;spacingLeft=4;spacingRight=4;overflow=hidden;rotatable=0;points=[[0,0.5],[1,0.5]];portConstraint=eastwest;whiteSpace=wrap;html=1;" vertex="1" parent="ZFk2LEt_zFQZBbhwsWkd-19">
          <mxGeometry y="58" width="480" height="32" as="geometry" />
        </mxCell>
        <mxCell id="ZFk2LEt_zFQZBbhwsWkd-23" value="引用 Node2 hostMem, devHostMem" style="html=1;verticalAlign=bottom;endArrow=block;curved=0;rounded=0;exitX=1;exitY=0.5;exitDx=0;exitDy=0;entryX=-0.005;entryY=0.206;entryDx=0;entryDy=0;entryPerimeter=0;" edge="1" parent="1" source="ZFk2LEt_zFQZBbhwsWkd-7" target="ZFk2LEt_zFQZBbhwsWkd-19">
          <mxGeometry width="80" relative="1" as="geometry">
            <mxPoint x="660" y="439" as="sourcePoint" />
            <mxPoint x="586" y="506" as="targetPoint" />
          </mxGeometry>
        </mxCell>
        <mxCell id="ZFk2LEt_zFQZBbhwsWkd-28" value="设置send tail/head 连接到 Node2的接收描述符" style="swimlane;fontStyle=1;align=center;verticalAlign=top;childLayout=stackLayout;horizontal=1;startSize=26;horizontalStack=0;resizeParent=1;resizeParentMax=0;resizeLast=0;collapsible=1;marginBottom=0;whiteSpace=wrap;html=1;fillColor=#d5e8d4;strokeColor=#82b366;" vertex="1" parent="1">
          <mxGeometry x="230" y="780" width="480" height="86" as="geometry" />
        </mxCell>
        <UserObject label="send-&gt;conn.tail = &amp;resources-&gt;devRemHostMem-&gt;tail" link="send-&gt;conn.tail = &amp;resources-&gt;devRemHostMem-&gt;tail" id="ZFk2LEt_zFQZBbhwsWkd-29">
          <mxCell style="text;strokeColor=none;fillColor=none;align=left;verticalAlign=top;spacingLeft=4;spacingRight=4;overflow=hidden;rotatable=0;points=[[0,0.5],[1,0.5]];portConstraint=eastwest;whiteSpace=wrap;html=1;" vertex="1" parent="ZFk2LEt_zFQZBbhwsWkd-28">
            <mxGeometry y="26" width="480" height="26" as="geometry" />
          </mxCell>
        </UserObject>
        <mxCell id="ZFk2LEt_zFQZBbhwsWkd-30" value="" style="line;strokeWidth=1;fillColor=none;align=left;verticalAlign=middle;spacingTop=-1;spacingLeft=3;spacingRight=3;rotatable=0;labelPosition=right;points=[];portConstraint=eastwest;strokeColor=inherit;" vertex="1" parent="ZFk2LEt_zFQZBbhwsWkd-28">
          <mxGeometry y="52" width="480" height="8" as="geometry" />
        </mxCell>
        <mxCell id="ZFk2LEt_zFQZBbhwsWkd-31" value="send-&amp;gt;conn.head = &amp;amp;resources-&amp;gt;devHostMem-&amp;gt;head" style="text;strokeColor=none;fillColor=none;align=left;verticalAlign=top;spacingLeft=4;spacingRight=4;overflow=hidden;rotatable=0;points=[[0,0.5],[1,0.5]];portConstraint=eastwest;whiteSpace=wrap;html=1;" vertex="1" parent="ZFk2LEt_zFQZBbhwsWkd-28">
          <mxGeometry y="60" width="480" height="26" as="geometry" />
        </mxCell>
        <mxCell id="ZFk2LEt_zFQZBbhwsWkd-33" value="引用 Node2 hostMem, devHostMem" style="html=1;verticalAlign=bottom;endArrow=block;curved=0;rounded=0;exitX=1;exitY=0.5;exitDx=0;exitDy=0;entryX=-0.006;entryY=0.146;entryDx=0;entryDy=0;entryPerimeter=0;" edge="1" parent="1" source="ZFk2LEt_zFQZBbhwsWkd-32" target="ZFk2LEt_zFQZBbhwsWkd-28">
          <mxGeometry width="80" relative="1" as="geometry">
            <mxPoint x="30" y="669" as="sourcePoint" />
            <mxPoint x="238" y="669" as="targetPoint" />
          </mxGeometry>
        </mxCell>
        <mxCell id="ZFk2LEt_zFQZBbhwsWkd-34" value="Node2" style="swimlane;fontStyle=1;align=center;verticalAlign=top;childLayout=stackLayout;horizontal=1;startSize=26;horizontalStack=0;resizeParent=1;resizeParentMax=0;resizeLast=0;collapsible=1;marginBottom=0;whiteSpace=wrap;html=1;fillColor=#dae8fc;strokeColor=#6c8ebf;" vertex="1" parent="1">
          <mxGeometry x="1000" y="950" width="260" height="86" as="geometry" />
        </mxCell>
        <mxCell id="ZFk2LEt_zFQZBbhwsWkd-35" value="shmRecvConnect&amp;nbsp;&amp;nbsp;步骤1 设置对端buf" style="text;strokeColor=none;fillColor=none;align=left;verticalAlign=top;spacingLeft=4;spacingRight=4;overflow=hidden;rotatable=0;points=[[0,0.5],[1,0.5]];portConstraint=eastwest;whiteSpace=wrap;html=1;" vertex="1" parent="ZFk2LEt_zFQZBbhwsWkd-34">
          <mxGeometry y="26" width="260" height="26" as="geometry" />
        </mxCell>
        <mxCell id="ZFk2LEt_zFQZBbhwsWkd-55" value="shmRecvConnect&amp;nbsp;步骤2 设置head/tail" style="text;strokeColor=none;fillColor=none;align=left;verticalAlign=top;spacingLeft=4;spacingRight=4;overflow=hidden;rotatable=0;points=[[0,0.5],[1,0.5]];portConstraint=eastwest;whiteSpace=wrap;html=1;" vertex="1" parent="ZFk2LEt_zFQZBbhwsWkd-34">
          <mxGeometry y="52" width="260" height="26" as="geometry" />
        </mxCell>
        <mxCell id="ZFk2LEt_zFQZBbhwsWkd-36" value="" style="line;strokeWidth=1;fillColor=none;align=left;verticalAlign=middle;spacingTop=-1;spacingLeft=3;spacingRight=3;rotatable=0;labelPosition=right;points=[];portConstraint=eastwest;strokeColor=inherit;" vertex="1" parent="ZFk2LEt_zFQZBbhwsWkd-34">
          <mxGeometry y="78" width="260" height="8" as="geometry" />
        </mxCell>
        <mxCell id="ZFk2LEt_zFQZBbhwsWkd-37" value="设置recv的 tail/head" style="swimlane;fontStyle=1;align=center;verticalAlign=top;childLayout=stackLayout;horizontal=1;startSize=26;horizontalStack=0;resizeParent=1;resizeParentMax=0;resizeLast=0;collapsible=1;marginBottom=0;whiteSpace=wrap;html=1;fillColor=#dae8fc;strokeColor=#6c8ebf;" vertex="1" parent="1">
          <mxGeometry x="230" y="1140" width="480" height="86" as="geometry" />
        </mxCell>
        <UserObject label="recv-&amp;gt;conn.head = &amp;amp;resources-&amp;gt;devRemHostMem-&amp;gt;head" link="send-&gt;conn.tail = &amp;resources-&gt;devRemHostMem-&gt;tail" id="ZFk2LEt_zFQZBbhwsWkd-38">
          <mxCell style="text;strokeColor=none;fillColor=none;align=left;verticalAlign=top;spacingLeft=4;spacingRight=4;overflow=hidden;rotatable=0;points=[[0,0.5],[1,0.5]];portConstraint=eastwest;whiteSpace=wrap;html=1;" vertex="1" parent="ZFk2LEt_zFQZBbhwsWkd-37">
            <mxGeometry y="26" width="480" height="26" as="geometry" />
          </mxCell>
        </UserObject>
        <mxCell id="ZFk2LEt_zFQZBbhwsWkd-39" value="" style="line;strokeWidth=1;fillColor=none;align=left;verticalAlign=middle;spacingTop=-1;spacingLeft=3;spacingRight=3;rotatable=0;labelPosition=right;points=[];portConstraint=eastwest;strokeColor=inherit;" vertex="1" parent="ZFk2LEt_zFQZBbhwsWkd-37">
          <mxGeometry y="52" width="480" height="8" as="geometry" />
        </mxCell>
        <mxCell id="ZFk2LEt_zFQZBbhwsWkd-40" value="recv-&amp;gt;conn.tail = &amp;amp;resources-&amp;gt;devHostMem-&amp;gt;tail" style="text;strokeColor=none;fillColor=none;align=left;verticalAlign=top;spacingLeft=4;spacingRight=4;overflow=hidden;rotatable=0;points=[[0,0.5],[1,0.5]];portConstraint=eastwest;whiteSpace=wrap;html=1;" vertex="1" parent="ZFk2LEt_zFQZBbhwsWkd-37">
          <mxGeometry y="60" width="480" height="26" as="geometry" />
        </mxCell>
        <mxCell id="ZFk2LEt_zFQZBbhwsWkd-41" value="" style="line;strokeWidth=1;fillColor=none;align=left;verticalAlign=middle;spacingTop=-1;spacingLeft=3;spacingRight=3;rotatable=0;labelPosition=right;points=[];portConstraint=eastwest;strokeColor=inherit;" vertex="1" parent="1">
          <mxGeometry x="660" y="760" width="40" height="8" as="geometry" />
        </mxCell>
        <mxCell id="ZFk2LEt_zFQZBbhwsWkd-42" value="Node1" style="swimlane;fontStyle=1;align=center;verticalAlign=top;childLayout=stackLayout;horizontal=1;startSize=26;horizontalStack=0;resizeParent=1;resizeParentMax=0;resizeLast=0;collapsible=1;marginBottom=0;whiteSpace=wrap;html=1;fillColor=#d5e8d4;strokeColor=#82b366;" vertex="1" parent="1">
          <mxGeometry x="-210" y="350" width="230" height="60" as="geometry" />
        </mxCell>
        <mxCell id="ZFk2LEt_zFQZBbhwsWkd-43" value="shmSendSetup" style="text;strokeColor=default;fillColor=none;align=left;verticalAlign=top;spacingLeft=4;spacingRight=4;overflow=hidden;rotatable=0;points=[[0,0.5],[1,0.5]];portConstraint=eastwest;whiteSpace=wrap;html=1;" vertex="1" parent="ZFk2LEt_zFQZBbhwsWkd-42">
          <mxGeometry y="26" width="230" height="26" as="geometry" />
        </mxCell>
        <mxCell id="ZFk2LEt_zFQZBbhwsWkd-45" value="" style="line;strokeWidth=1;fillColor=none;align=left;verticalAlign=middle;spacingTop=-1;spacingLeft=3;spacingRight=3;rotatable=0;labelPosition=right;points=[];portConstraint=eastwest;strokeColor=inherit;" vertex="1" parent="ZFk2LEt_zFQZBbhwsWkd-42">
          <mxGeometry y="52" width="230" height="8" as="geometry" />
        </mxCell>
        <mxCell id="ZFk2LEt_zFQZBbhwsWkd-46" value="&lt;span style=&quot;font-weight: 400; text-align: left;&quot;&gt;ncclShmOpen 创建&lt;/span&gt;&lt;span style=&quot;text-align: left;&quot;&gt;&lt;font color=&quot;#ff0000&quot;&gt;shm发送描述符&lt;/font&gt;&lt;br&gt;&lt;/span&gt;" style="swimlane;fontStyle=1;align=center;verticalAlign=top;childLayout=stackLayout;horizontal=1;startSize=30;horizontalStack=0;resizeParent=1;resizeParentMax=0;resizeLast=0;collapsible=1;marginBottom=0;whiteSpace=wrap;html=1;fillColor=#d5e8d4;strokeColor=#82b366;" vertex="1" parent="1">
          <mxGeometry x="230" y="370" width="480" height="90" as="geometry" />
        </mxCell>
        <mxCell id="ZFk2LEt_zFQZBbhwsWkd-47" value="hostMem&amp;nbsp; //通过 mkstemp, open, mmap 创建,&amp;nbsp;" style="text;strokeColor=none;fillColor=none;align=left;verticalAlign=top;spacingLeft=4;spacingRight=4;overflow=hidden;rotatable=0;points=[[0,0.5],[1,0.5]];portConstraint=eastwest;whiteSpace=wrap;html=1;" vertex="1" parent="ZFk2LEt_zFQZBbhwsWkd-46">
          <mxGeometry y="30" width="480" height="20" as="geometry" />
        </mxCell>
        <mxCell id="ZFk2LEt_zFQZBbhwsWkd-48" value="" style="line;strokeWidth=1;fillColor=none;align=left;verticalAlign=middle;spacingTop=-1;spacingLeft=3;spacingRight=3;rotatable=0;labelPosition=right;points=[];portConstraint=eastwest;strokeColor=inherit;" vertex="1" parent="ZFk2LEt_zFQZBbhwsWkd-46">
          <mxGeometry y="50" width="480" height="8" as="geometry" />
        </mxCell>
        <mxCell id="ZFk2LEt_zFQZBbhwsWkd-49" value="devRemHostMem //cudaHostRegister cudaHostGetDevicePointer 获取device buf 地址" style="text;strokeColor=none;fillColor=none;align=left;verticalAlign=top;spacingLeft=4;spacingRight=4;overflow=hidden;rotatable=0;points=[[0,0.5],[1,0.5]];portConstraint=eastwest;whiteSpace=wrap;html=1;" vertex="1" parent="ZFk2LEt_zFQZBbhwsWkd-46">
          <mxGeometry y="58" width="480" height="32" as="geometry" />
        </mxCell>
        <mxCell id="ZFk2LEt_zFQZBbhwsWkd-50" value="引用 Node2 hostMem, devHostMem" style="html=1;verticalAlign=bottom;endArrow=block;curved=0;rounded=0;exitX=1;exitY=0.5;exitDx=0;exitDy=0;entryX=-0.002;entryY=0.198;entryDx=0;entryDy=0;entryPerimeter=0;" edge="1" parent="1" source="ZFk2LEt_zFQZBbhwsWkd-43" target="ZFk2LEt_zFQZBbhwsWkd-46">
          <mxGeometry width="80" relative="1" as="geometry">
            <mxPoint x="30" y="669" as="sourcePoint" />
            <mxPoint x="238" y="669" as="targetPoint" />
          </mxGeometry>
        </mxCell>
        <mxCell id="ZFk2LEt_zFQZBbhwsWkd-51" value="&lt;span style=&quot;font-weight: 400; text-align: left;&quot;&gt;ncclShmOpen (rem Mem 是Send端的发送描述符)&lt;br&gt;&lt;/span&gt;" style="swimlane;fontStyle=1;align=center;verticalAlign=top;childLayout=stackLayout;horizontal=1;startSize=30;horizontalStack=0;resizeParent=1;resizeParentMax=0;resizeLast=0;collapsible=1;marginBottom=0;whiteSpace=wrap;html=1;fillColor=#dae8fc;strokeColor=#6c8ebf;" vertex="1" parent="1">
          <mxGeometry x="230" y="973" width="480" height="90" as="geometry" />
        </mxCell>
        <mxCell id="ZFk2LEt_zFQZBbhwsWkd-52" value="remHostMem&amp;nbsp; //通过 open, mmap 引用 (remHostMem 是Node2创建)" style="text;strokeColor=none;fillColor=none;align=left;verticalAlign=top;spacingLeft=4;spacingRight=4;overflow=hidden;rotatable=0;points=[[0,0.5],[1,0.5]];portConstraint=eastwest;whiteSpace=wrap;html=1;" vertex="1" parent="ZFk2LEt_zFQZBbhwsWkd-51">
          <mxGeometry y="30" width="480" height="20" as="geometry" />
        </mxCell>
        <mxCell id="ZFk2LEt_zFQZBbhwsWkd-53" value="" style="line;strokeWidth=1;fillColor=none;align=left;verticalAlign=middle;spacingTop=-1;spacingLeft=3;spacingRight=3;rotatable=0;labelPosition=right;points=[];portConstraint=eastwest;strokeColor=inherit;" vertex="1" parent="ZFk2LEt_zFQZBbhwsWkd-51">
          <mxGeometry y="50" width="480" height="8" as="geometry" />
        </mxCell>
        <mxCell id="ZFk2LEt_zFQZBbhwsWkd-54" value="devRemHostMem //cudaHostRegister cudaHostGetDevicePointer 获取device buf 地址" style="text;strokeColor=none;fillColor=none;align=left;verticalAlign=top;spacingLeft=4;spacingRight=4;overflow=hidden;rotatable=0;points=[[0,0.5],[1,0.5]];portConstraint=eastwest;whiteSpace=wrap;html=1;" vertex="1" parent="ZFk2LEt_zFQZBbhwsWkd-51">
          <mxGeometry y="58" width="480" height="32" as="geometry" />
        </mxCell>
        <mxCell id="ZFk2LEt_zFQZBbhwsWkd-56" value="引用 Node1 hostMem, devHostMem" style="html=1;verticalAlign=bottom;endArrow=block;curved=0;rounded=0;exitX=0;exitY=0.5;exitDx=0;exitDy=0;entryX=0.998;entryY=0.161;entryDx=0;entryDy=0;entryPerimeter=0;" edge="1" parent="1" source="ZFk2LEt_zFQZBbhwsWkd-35" target="ZFk2LEt_zFQZBbhwsWkd-51">
          <mxGeometry width="80" relative="1" as="geometry">
            <mxPoint x="30" y="669" as="sourcePoint" />
            <mxPoint x="238" y="669" as="targetPoint" />
          </mxGeometry>
        </mxCell>
        <mxCell id="ZFk2LEt_zFQZBbhwsWkd-57" value="引用 Node1 hostMem, devHostMem" style="html=1;verticalAlign=bottom;endArrow=block;curved=0;rounded=0;exitX=0;exitY=0.5;exitDx=0;exitDy=0;entryX=1.005;entryY=0.159;entryDx=0;entryDy=0;entryPerimeter=0;" edge="1" parent="1" source="ZFk2LEt_zFQZBbhwsWkd-55" target="ZFk2LEt_zFQZBbhwsWkd-37">
          <mxGeometry x="0.0022" width="80" relative="1" as="geometry">
            <mxPoint x="30" y="695" as="sourcePoint" />
            <mxPoint x="237" y="803" as="targetPoint" />
            <mxPoint as="offset" />
          </mxGeometry>
        </mxCell>
        <mxCell id="ZFk2LEt_zFQZBbhwsWkd-60" value="Host Share Mem" style="rounded=0;whiteSpace=wrap;html=1;align=left;verticalAlign=top;" vertex="1" parent="1">
          <mxGeometry x="-280" y="-140" width="440" height="160" as="geometry" />
        </mxCell>
        <mxCell id="ZFk2LEt_zFQZBbhwsWkd-61" value="发送 SHM" style="swimlane;fontStyle=1;align=center;verticalAlign=top;childLayout=stackLayout;horizontal=1;startSize=26;horizontalStack=0;resizeParent=1;resizeParentMax=0;resizeLast=0;collapsible=1;marginBottom=0;whiteSpace=wrap;html=1;fillColor=#d5e8d4;strokeColor=#82b366;" vertex="1" parent="1">
          <mxGeometry x="-260" y="-80" width="170" height="60" as="geometry" />
        </mxCell>
        <mxCell id="ZFk2LEt_zFQZBbhwsWkd-62" value="发送描述符" style="text;strokeColor=#82b366;fillColor=#d5e8d4;align=left;verticalAlign=top;spacingLeft=4;spacingRight=4;overflow=hidden;rotatable=0;points=[[0,0.5],[1,0.5]];portConstraint=eastwest;whiteSpace=wrap;html=1;" vertex="1" parent="ZFk2LEt_zFQZBbhwsWkd-61">
          <mxGeometry y="26" width="170" height="26" as="geometry" />
        </mxCell>
        <mxCell id="ZFk2LEt_zFQZBbhwsWkd-63" value="" style="line;strokeWidth=1;fillColor=none;align=left;verticalAlign=middle;spacingTop=-1;spacingLeft=3;spacingRight=3;rotatable=0;labelPosition=right;points=[];portConstraint=eastwest;strokeColor=inherit;" vertex="1" parent="ZFk2LEt_zFQZBbhwsWkd-61">
          <mxGeometry y="52" width="170" height="8" as="geometry" />
        </mxCell>
        <mxCell id="ZFk2LEt_zFQZBbhwsWkd-64" value="接收 SHM" style="swimlane;fontStyle=1;align=center;verticalAlign=top;childLayout=stackLayout;horizontal=1;startSize=26;horizontalStack=0;resizeParent=1;resizeParentMax=0;resizeLast=0;collapsible=1;marginBottom=0;whiteSpace=wrap;html=1;fillColor=#dae8fc;strokeColor=#6c8ebf;" vertex="1" parent="1">
          <mxGeometry x="-40" y="-80" width="170" height="86" as="geometry" />
        </mxCell>
        <mxCell id="ZFk2LEt_zFQZBbhwsWkd-65" value="接收描述符" style="text;strokeColor=#6c8ebf;fillColor=#dae8fc;align=left;verticalAlign=top;spacingLeft=4;spacingRight=4;overflow=hidden;rotatable=0;points=[[0,0.5],[1,0.5]];portConstraint=eastwest;whiteSpace=wrap;html=1;" vertex="1" parent="ZFk2LEt_zFQZBbhwsWkd-64">
          <mxGeometry y="26" width="170" height="26" as="geometry" />
        </mxCell>
        <mxCell id="ZFk2LEt_zFQZBbhwsWkd-67" value="send/recv Buffer" style="text;strokeColor=#6c8ebf;fillColor=#dae8fc;align=left;verticalAlign=top;spacingLeft=4;spacingRight=4;overflow=hidden;rotatable=0;points=[[0,0.5],[1,0.5]];portConstraint=eastwest;whiteSpace=wrap;html=1;fontStyle=1" vertex="1" parent="ZFk2LEt_zFQZBbhwsWkd-64">
          <mxGeometry y="52" width="170" height="26" as="geometry" />
        </mxCell>
        <mxCell id="ZFk2LEt_zFQZBbhwsWkd-66" value="" style="line;strokeWidth=1;fillColor=none;align=left;verticalAlign=middle;spacingTop=-1;spacingLeft=3;spacingRight=3;rotatable=0;labelPosition=right;points=[];portConstraint=eastwest;strokeColor=inherit;" vertex="1" parent="ZFk2LEt_zFQZBbhwsWkd-64">
          <mxGeometry y="78" width="170" height="8" as="geometry" />
        </mxCell>
        <mxCell id="ZFk2LEt_zFQZBbhwsWkd-68" value="" style="endArrow=classic;html=1;rounded=0;exitX=0.5;exitY=0;exitDx=0;exitDy=0;entryX=1;entryY=0.25;entryDx=0;entryDy=0;" edge="1" parent="1" source="ZFk2LEt_zFQZBbhwsWkd-14" target="ZFk2LEt_zFQZBbhwsWkd-64">
          <mxGeometry width="50" height="50" relative="1" as="geometry">
            <mxPoint x="370" y="50" as="sourcePoint" />
            <mxPoint x="420" as="targetPoint" />
            <Array as="points">
              <mxPoint x="470" y="31" />
            </Array>
          </mxGeometry>
        </mxCell>
        <mxCell id="ZFk2LEt_zFQZBbhwsWkd-69" value="" style="endArrow=classic;html=1;rounded=0;entryX=0.5;entryY=1;entryDx=0;entryDy=0;exitX=0.5;exitY=0;exitDx=0;exitDy=0;" edge="1" parent="1" source="ZFk2LEt_zFQZBbhwsWkd-46" target="ZFk2LEt_zFQZBbhwsWkd-61">
          <mxGeometry width="50" height="50" relative="1" as="geometry">
            <mxPoint x="80" y="320" as="sourcePoint" />
            <mxPoint x="130" y="270" as="targetPoint" />
            <Array as="points">
              <mxPoint x="470" y="320" />
              <mxPoint x="-175" y="210" />
            </Array>
          </mxGeometry>
        </mxCell>
        <mxCell id="ZFk2LEt_zFQZBbhwsWkd-73" value="&lt;b&gt;&lt;font style=&quot;font-size: 16px;&quot;&gt;&amp;nbsp; Reciever Setup&lt;/font&gt;&lt;/b&gt;" style="rounded=0;whiteSpace=wrap;html=1;align=left;verticalAlign=top;" vertex="1" parent="1">
          <mxGeometry x="220" y="16" width="970" height="194" as="geometry" />
        </mxCell>
      </root>
    </mxGraphModel>
  </diagram>
</mxfile>
